<svg xmlns="http://www.w3.org/2000/svg" viewBox="0 0 1200 800" role="img" aria-labelledby="t d"><title id="t">Multimodal embeddings and retrieval</title><desc id="d">A visual map linking text, images, and documents into a semantic retrieval network.</desc><defs><linearGradient id="bg" x1="0" y1="0" x2="1" y2="1"><stop stop-color="#f5f8ee"/><stop offset="1" stop-color="#d8efe8"/></linearGradient><linearGradient id="node" x1="0" y1="0" x2="1" y2="1"><stop stop-color="#0d8f82"/><stop offset="1" stop-color="#5d57d9"/></linearGradient></defs><rect width="1200" height="800" fill="url(#bg)"/><g stroke="#7abdb0" stroke-width="3" stroke-opacity=".65"><path d="M230 250 430 340 580 220 760 330 970 220M230 250 260 500 430 340 450 570 760 330 800 540 970 220 1000 500M260 500 450 570 620 470 800 540 1000 500M430 340 620 470 760 330"/></g><g fill="url(#node)"><circle cx="230" cy="250" r="23"/><circle cx="430" cy="340" r="18"/><circle cx="580" cy="220" r="22"/><circle cx="760" cy="330" r="25"/><circle cx="970" cy="220" r="20"/><circle cx="260" cy="500" r="18"/><circle cx="450" cy="570" r="24"/><circle cx="620" cy="470" r="20"/><circle cx="800" cy="540" r="22"/><circle cx="1000" cy="500" r="19"/></g><g fill="#fff"><circle cx="230" cy="250" r="7"/><circle cx="580" cy="220" r="7"/><circle cx="760" cy="330" r="8"/><circle cx="450" cy="570" r="8"/><circle cx="800" cy="540" r="7"/></g><g font-family="Arial,sans-serif"><rect x="85" y="105" width="200" height="82" rx="14" fill="#fff" stroke="#c4dfd8" stroke-width="2"/><text x="120" y="155" fill="#176a60" font-size="25" font-weight="700">TEXT</text><rect x="460" y="100" width="220" height="82" rx="14" fill="#fff" stroke="#c4dfd8" stroke-width="2"/><text x="495" y="150" fill="#5149a4" font-size="25" font-weight="700">IMAGES</text><rect x="880" y="105" width="235" height="82" rx="14" fill="#fff" stroke="#c4dfd8" stroke-width="2"/><text x="910" y="155" fill="#176a60" font-size="25" font-weight="700">DOCUMENTS</text><text x="80" y="690" fill="#123c39" font-size="45" font-weight="700">MULTIMODAL RETRIEVAL</text><text x="83" y="735" fill="#47756e" font-size="24">Connect meaning across different media</text></g></svg>